<?xml version="1.0" encoding="UTF-8" standalone="no"?>
<svg
   width="700pt"
   height="700pt"
   version="1.1"
   viewBox="0 0 496 512"
   id="svg305"
   sodipodi:docname="sewed_button.svg"
   inkscape:version="1.2.1 (9c6d41e410, 2022-07-14)"
   xmlns:inkscape="http://www.inkscape.org/namespaces/inkscape"
   xmlns:sodipodi="http://sodipodi.sourceforge.net/DTD/sodipodi-0.dtd"
   xmlns:xlink="http://www.w3.org/1999/xlink"
   xmlns="http://www.w3.org/2000/svg"
   xmlns:svg="http://www.w3.org/2000/svg">
  <sodipodi:namedview
     id="namedview307"
     pagecolor="#ffffff"
     bordercolor="#000000"
     borderopacity="0.25"
     inkscape:showpageshadow="2"
     inkscape:pageopacity="0.0"
     inkscape:pagecheckerboard="0"
     inkscape:deskcolor="#d1d1d1"
     inkscape:document-units="pt"
     showgrid="false"
     inkscape:zoom="0.72776573"
     inkscape:cx="465.80924"
     inkscape:cy="453.44262"
     inkscape:window-width="1920"
     inkscape:window-height="1051"
     inkscape:window-x="-9"
     inkscape:window-y="-9"
     inkscape:window-maximized="1"
     inkscape:current-layer="svg305" />
  <defs
     id="defs225">
    <symbol
       id="v"
       overflow="visible">
      <path
         d="m20.844-1.25c-1.0742 0.5625-2.1953 0.98438-3.3594 1.2656-1.168 0.28125-2.3828 0.42188-3.6406 0.42188-3.7812 0-6.7773-1.0508-8.9844-3.1562-2.2109-2.1133-3.3125-4.9766-3.3125-8.5938 0-3.625 1.1016-6.4922 3.3125-8.6094 2.207-2.1133 5.2031-3.1719 8.9844-3.1719 1.2578 0 2.4727 0.14844 3.6406 0.4375 1.1641 0.28125 2.2852 0.69922 3.3594 1.25v4.7031c-1.0859-0.73828-2.1523-1.2812-3.2031-1.625-1.0547-0.34375-2.1641-0.51562-3.3281-0.51562-2.0859 0-3.7266 0.66797-4.9219 2-1.1992 1.3359-1.7969 3.1797-1.7969 5.5312 0 2.3359 0.59766 4.1719 1.7969 5.5156 1.1953 1.3359 2.8359 2 4.9219 2 1.1641 0 2.2734-0.17188 3.3281-0.51562 1.0508-0.34375 2.1172-0.88281 3.2031-1.625z"
         id="path159" />
    </symbol>
    <symbol
       id="c"
       overflow="visible">
      <path
         d="m15.25-12.375c-0.48047-0.22656-0.95312-0.39453-1.4219-0.5-0.46875-0.10156-0.94531-0.15625-1.4219-0.15625-1.3984 0-2.4766 0.44922-3.2344 1.3438-0.75 0.89844-1.125 2.1797-1.125 3.8438v7.8438h-5.4375v-17.016h5.4375v2.7969c0.69531-1.1133 1.5-1.9258 2.4062-2.4375 0.90625-0.50781 1.9922-0.76562 3.2656-0.76562 0.17578 0 0.36719 0.011719 0.57812 0.03125 0.21875 0.011719 0.53125 0.042969 0.9375 0.09375z"
         id="path162" />
    </symbol>
    <symbol
       id="a"
       overflow="visible">
      <path
         d="m19.594-8.5469v1.5469h-12.719c0.13281 1.2734 0.59766 2.2305 1.3906 2.875 0.78906 0.63672 1.8945 0.95312 3.3125 0.95312 1.1445 0 2.3164-0.16406 3.5156-0.5 1.1953-0.34375 2.4297-0.85938 3.7031-1.5469v4.1875c-1.293 0.49219-2.5859 0.85547-3.875 1.0938-1.2812 0.25-2.5625 0.375-3.8438 0.375-3.0859 0-5.4805-0.78125-7.1875-2.3438-1.6992-1.5625-2.5469-3.7539-2.5469-6.5781 0-2.7812 0.83203-4.9609 2.5-6.5469 1.6758-1.5938 3.9844-2.3906 6.9219-2.3906 2.6758 0 4.8164 0.80859 6.4219 2.4219 1.6016 1.6055 2.4062 3.7578 2.4062 6.4531zm-5.5938-1.8125c0-1.0312-0.30469-1.8633-0.90625-2.5-0.59375-0.63281-1.3828-0.95312-2.3594-0.95312-1.0547 0-1.9062 0.29688-2.5625 0.89062s-1.0703 1.4492-1.2344 2.5625z"
         id="path165" />
    </symbol>
    <symbol
       id="l"
       overflow="visible">
      <path
         d="m10.234-7.6562c-1.1367 0-1.9922 0.19531-2.5625 0.57812-0.5625 0.38672-0.84375 0.95312-0.84375 1.7031 0 0.6875 0.22656 1.2305 0.6875 1.625 0.45703 0.38672 1.0977 0.57812 1.9219 0.57812 1.0195 0 1.8789-0.36328 2.5781-1.0938 0.69531-0.73828 1.0469-1.6602 1.0469-2.7656v-0.625zm8.3125-2.0469v9.7031h-5.4844v-2.5156c-0.73047 1.0312-1.5547 1.7812-2.4688 2.25-0.90625 0.46875-2.0117 0.70312-3.3125 0.70312-1.7617 0-3.1953-0.50781-4.2969-1.5312-1.0938-1.0312-1.6406-2.3672-1.6406-4.0156 0-1.9883 0.67969-3.4453 2.0469-4.375 1.375-0.9375 3.5312-1.4062 6.4688-1.4062h3.2031v-0.42188c0-0.86328-0.33984-1.4922-1.0156-1.8906-0.67969-0.40625-1.7344-0.60938-3.1719-0.60938-1.168 0-2.2578 0.12109-3.2656 0.35938-1 0.23047-1.9297 0.57812-2.7812 1.0469v-4.1562c1.1641-0.28125 2.332-0.49219 3.5-0.64062 1.1758-0.14453 2.3516-0.21875 3.5312-0.21875 3.0703 0 5.2852 0.60547 6.6406 1.8125 1.3633 1.2109 2.0469 3.1797 2.0469 5.9062z"
         id="path168" />
    </symbol>
    <symbol
       id="b"
       overflow="visible">
      <path
         d="m8.5469-21.844v4.8281h5.6094v3.8906h-5.6094v7.2188c0 0.79297 0.15625 1.3281 0.46875 1.6094 0.32031 0.27344 0.94531 0.40625 1.875 0.40625h2.7969v3.8906h-4.6719c-2.1484 0-3.668-0.44531-4.5625-1.3438-0.89844-0.89453-1.3438-2.4141-1.3438-4.5625v-7.2188h-2.7031v-3.8906h2.7031v-4.8281z"
         id="path171" />
    </symbol>
    <symbol
       id="k"
       overflow="visible">
      <path
         d="m14.188-14.516v-9.125h5.4688v23.641h-5.4688v-2.4531c-0.75 1-1.5781 1.7344-2.4844 2.2031-0.89844 0.45703-1.9375 0.6875-3.125 0.6875-2.0938 0-3.8203-0.83203-5.1719-2.5-1.3438-1.6641-2.0156-3.8047-2.0156-6.4219 0-2.625 0.67188-4.7695 2.0156-6.4375 1.3516-1.6641 3.0781-2.5 5.1719-2.5 1.1758 0 2.2188 0.23438 3.125 0.70312s1.7344 1.2031 2.4844 2.2031zm-3.5781 11c1.1562 0 2.0391-0.42188 2.6562-1.2656 0.61328-0.85156 0.92188-2.0859 0.92188-3.7031 0-1.625-0.30859-2.8594-0.92188-3.7031-0.61719-0.85156-1.5-1.2812-2.6562-1.2812s-2.043 0.42969-2.6562 1.2812c-0.61719 0.84375-0.92188 2.0781-0.92188 3.7031 0 1.6172 0.30469 2.8516 0.92188 3.7031 0.61328 0.84375 1.5 1.2656 2.6562 1.2656z"
         id="path174" />
    </symbol>
    <symbol
       id="j"
       overflow="visible">
      <path
         d="m11.672-3.5156c1.1562 0 2.0391-0.42188 2.6562-1.2656 0.61328-0.85156 0.92188-2.0859 0.92188-3.7031 0-1.625-0.30859-2.8594-0.92188-3.7031-0.61719-0.85156-1.5-1.2812-2.6562-1.2812-1.168 0-2.0625 0.42969-2.6875 1.2812-0.625 0.85547-0.9375 2.0898-0.9375 3.7031 0 1.6055 0.3125 2.8359 0.9375 3.6875 0.625 0.85547 1.5195 1.2812 2.6875 1.2812zm-3.625-11c0.75-1 1.5781-1.7344 2.4844-2.2031 0.91406-0.46875 1.9688-0.70312 3.1562-0.70312 2.0938 0 3.8125 0.83594 5.1562 2.5 1.3516 1.668 2.0312 3.8125 2.0312 6.4375 0 2.6172-0.67969 4.7578-2.0312 6.4219-1.3438 1.668-3.0625 2.5-5.1562 2.5-1.1875 0-2.2422-0.23438-3.1562-0.70312-0.90625-0.46875-1.7344-1.1953-2.4844-2.1875v2.4531h-5.4375v-23.641h5.4375z"
         id="path177" />
    </symbol>
    <symbol
       id="i"
       overflow="visible">
      <path
         d="m0.375-17.016h5.4375l4.5781 11.547 3.8906-11.547h5.4375l-7.1562 18.625c-0.71875 1.8945-1.5586 3.2188-2.5156 3.9688-0.96094 0.75781-2.2188 1.1406-3.7812 1.1406h-3.1562v-3.5781h1.7031c0.92578 0 1.5977-0.14844 2.0156-0.4375 0.41406-0.29297 0.74219-0.82031 0.98438-1.5781l0.14062-0.46875z"
         id="path180" />
    </symbol>
    <symbol
       id="h"
       overflow="visible">
      <path
         d="m2.8594-22.672h5.8438v20.469c0 2.8203-0.77344 4.9297-2.3125 6.3281-1.5312 1.4062-3.8516 2.1094-6.9531 2.1094h-1.1875v-4.4219h0.92188c1.207 0 2.125-0.34375 2.75-1.0312 0.625-0.67969 0.9375-1.6719 0.9375-2.9844z"
         id="path183" />
    </symbol>
    <symbol
       id="g"
       overflow="visible">
      <path
         d="m15.906-16.484v4.1406c-1.168-0.48828-2.293-0.85156-3.375-1.0938-1.0859-0.25-2.1055-0.375-3.0625-0.375-1.043 0-1.8125 0.13281-2.3125 0.39062-0.5 0.26172-0.75 0.65625-0.75 1.1875 0 0.4375 0.1875 0.77734 0.5625 1.0156 0.38281 0.23047 1.0664 0.40234 2.0469 0.51562l0.96875 0.125c2.7812 0.35547 4.6484 0.9375 5.6094 1.75 0.96875 0.8125 1.4531 2.0859 1.4531 3.8125 0 1.8125-0.67188 3.1797-2.0156 4.0938-1.3359 0.90625-3.3281 1.3594-5.9844 1.3594-1.1172 0-2.2773-0.089844-3.4844-0.26562-1.1992-0.17578-2.4297-0.44141-3.6875-0.79688v-4.125c1.082 0.52344 2.1914 0.91797 3.3281 1.1875 1.1328 0.26172 2.2891 0.39062 3.4688 0.39062 1.0625 0 1.8594-0.14453 2.3906-0.4375 0.53906-0.30078 0.8125-0.73828 0.8125-1.3125 0-0.48828-0.1875-0.84766-0.5625-1.0781-0.36719-0.23828-1.1016-0.42578-2.2031-0.5625l-0.95312-0.125c-2.418-0.30078-4.1172-0.85938-5.0938-1.6719-0.96875-0.82031-1.4531-2.0703-1.4531-3.75 0-1.8008 0.61328-3.1328 1.8438-4 1.2383-0.875 3.1328-1.3125 5.6875-1.3125 1 0 2.0508 0.078125 3.1562 0.23438 1.1016 0.14844 2.3047 0.38281 3.6094 0.70312z"
         id="path186" />
    </symbol>
    <symbol
       id="u"
       overflow="visible">
      <path
         d="m18.641-21.969v4.7969c-1.25-0.55078-2.4688-0.96875-3.6562-1.25-1.1797-0.28125-2.293-0.42188-3.3438-0.42188-1.3984 0-2.4336 0.19531-3.1094 0.57812-0.66797 0.375-1 0.96875-1 1.7812 0 0.61719 0.22266 1.0938 0.67188 1.4375 0.45703 0.33594 1.2734 0.62109 2.4531 0.85938l2.5 0.5c2.5195 0.51172 4.3125 1.2812 5.375 2.3125s1.5938 2.5 1.5938 4.4062c0 2.5-0.74609 4.3594-2.2344 5.5781-1.4805 1.2188-3.7422 1.8281-6.7812 1.8281-1.4375 0-2.8828-0.13672-4.3281-0.40625-1.4492-0.26953-2.8984-0.67578-4.3438-1.2188v-4.9375c1.4453 0.77344 2.8438 1.3555 4.1875 1.75 1.3516 0.38672 2.6602 0.57812 3.9219 0.57812 1.2695 0 2.2422-0.21094 2.9219-0.64062 0.67578-0.42578 1.0156-1.0352 1.0156-1.8281 0-0.70703-0.23047-1.25-0.6875-1.625-0.46094-0.38281-1.375-0.73438-2.75-1.0469l-2.2656-0.5c-2.2734-0.47656-3.9336-1.25-4.9844-2.3125-1.043-1.0703-1.5625-2.5078-1.5625-4.3125 0-2.25 0.72656-3.9844 2.1875-5.2031 1.457-1.2188 3.5508-1.8281 6.2812-1.8281 1.25 0 2.5312 0.09375 3.8438 0.28125 1.3203 0.1875 2.6875 0.46875 4.0938 0.84375z"
         id="path189" />
    </symbol>
    <symbol
       id="f"
       overflow="visible">
      <path
         d="m18.375-14.188c0.6875-1.0508 1.5039-1.8516 2.4531-2.4062 0.94531-0.55078 1.9883-0.82812 3.125-0.82812 1.957 0 3.4453 0.60547 4.4688 1.8125 1.0195 1.1992 1.5312 2.9492 1.5312 5.25v10.359h-5.4688v-8.875c0.007813-0.125 0.015625-0.25781 0.015625-0.40625 0.007812-0.14453 0.015625-0.34766 0.015625-0.60938 0-1.207-0.17969-2.082-0.53125-2.625-0.35547-0.53906-0.92969-0.8125-1.7188-0.8125-1.0312 0-1.8281 0.42969-2.3906 1.2812-0.5625 0.85547-0.85547 2.0859-0.875 3.6875v8.3594h-5.4688v-8.875c0-1.8828-0.16406-3.0977-0.48438-3.6406-0.32422-0.53906-0.90234-0.8125-1.7344-0.8125-1.043 0-1.8516 0.43359-2.4219 1.2969-0.5625 0.85547-0.84375 2.0742-0.84375 3.6562v8.375h-5.4688v-17.016h5.4688v2.5c0.66406-0.96875 1.4297-1.6914 2.2969-2.1719 0.875-0.48828 1.832-0.73438 2.875-0.73438 1.1758 0 2.2109 0.28906 3.1094 0.85938 0.90625 0.5625 1.5859 1.3555 2.0469 2.375z"
         id="path192" />
    </symbol>
    <symbol
       id="t"
       overflow="visible">
      <path
         d="m2.6094-17.016h5.4375v17.016h-5.4375zm0-6.625h5.4375v4.4375h-5.4375z"
         id="path195" />
    </symbol>
    <symbol
       id="e"
       overflow="visible">
      <path
         d="m19.719-10.359v10.359h-5.4688v-7.9062c0-1.4766-0.039062-2.4922-0.10938-3.0469-0.0625-0.5625-0.17188-0.97656-0.32812-1.25-0.21875-0.35156-0.51172-0.62891-0.875-0.82812-0.36719-0.19531-0.77734-0.29688-1.2344-0.29688-1.1367 0-2.0312 0.44531-2.6875 1.3281-0.64844 0.875-0.96875 2.0859-0.96875 3.625v8.375h-5.4375v-23.641h5.4375v9.125c0.82031-1 1.6914-1.7344 2.6094-2.2031 0.92578-0.46875 1.9453-0.70312 3.0625-0.70312 1.957 0 3.4453 0.60547 4.4688 1.8125 1.0195 1.1992 1.5312 2.9492 1.5312 5.25z"
         id="path198" />
    </symbol>
    <symbol
       id="s"
       overflow="visible">
      <path
         d="m13.812-23.641v3.5781h-3.0156c-0.77344 0-1.3086 0.14062-1.6094 0.42188-0.30469 0.27344-0.45312 0.75-0.45312 1.4375v1.1875h4.6406v3.8906h-4.6406v13.125h-5.4375v-13.125h-2.7031v-3.8906h2.7031v-1.1875c0-1.8516 0.51562-3.2227 1.5469-4.1094 1.0312-0.88281 2.6289-1.3281 4.7969-1.3281z"
         id="path201" />
    </symbol>
    <symbol
       id="d"
       overflow="visible">
      <path
         d="m10.703-13.531c-1.1992 0-2.1172 0.43359-2.75 1.2969-0.63672 0.86719-0.95312 2.1172-0.95312 3.75 0 1.625 0.31641 2.8711 0.95312 3.7344 0.63281 0.86719 1.5508 1.2969 2.75 1.2969 1.1875 0 2.0938-0.42969 2.7188-1.2969 0.63281-0.86328 0.95312-2.1094 0.95312-3.7344 0-1.6328-0.32031-2.8828-0.95312-3.75-0.625-0.86328-1.5312-1.2969-2.7188-1.2969zm0-3.8906c2.9258 0 5.2109 0.79297 6.8594 2.375 1.6445 1.5742 2.4688 3.7617 2.4688 6.5625 0 2.793-0.82422 4.9805-2.4688 6.5625-1.6484 1.5742-3.9336 2.3594-6.8594 2.3594-2.9375 0-5.2344-0.78516-6.8906-2.3594-1.6484-1.582-2.4688-3.7695-2.4688-6.5625 0-2.8008 0.82031-4.9883 2.4688-6.5625 1.6562-1.582 3.9531-2.375 6.8906-2.375z"
         id="path204" />
    </symbol>
    <symbol
       id="r"
       overflow="visible">
      <path
         d="m2.8594-22.672h6.5312l8.25 15.547v-15.547h5.5469v22.672h-6.5469l-8.2344-15.562v15.562h-5.5469z"
         id="path207" />
    </symbol>
    <symbol
       id="q"
       overflow="visible">
      <path
         d="m2.4375-6.625v-10.391h5.4688v1.7031c0 0.92969-0.007812 2.0898-0.015625 3.4844-0.011719 1.3867-0.015625 2.3125-0.015625 2.7812 0 1.3672 0.03125 2.3516 0.09375 2.9531 0.070312 0.60547 0.19531 1.043 0.375 1.3125 0.21875 0.35547 0.50391 0.63281 0.85938 0.82812 0.36328 0.1875 0.78125 0.28125 1.25 0.28125 1.1328 0 2.0234-0.42969 2.6719-1.2969 0.64453-0.875 0.96875-2.0859 0.96875-3.6406v-8.4062h5.4375v17.016h-5.4375v-2.4531c-0.82422 0.99219-1.6953 1.7188-2.6094 2.1875-0.91797 0.46875-1.9297 0.70312-3.0312 0.70312-1.9609 0-3.4531-0.59766-4.4844-1.7969-1.0234-1.207-1.5312-2.9609-1.5312-5.2656z"
         id="path210" />
    </symbol>
    <symbol
       id="p"
       overflow="visible">
      <path
         d="m19.719-10.359v10.359h-5.4688v-7.9219c0-1.4688-0.039062-2.4766-0.10938-3.0312-0.0625-0.5625-0.17188-0.97656-0.32812-1.25-0.21875-0.35156-0.51172-0.62891-0.875-0.82812-0.36719-0.19531-0.77734-0.29688-1.2344-0.29688-1.1367 0-2.0312 0.44531-2.6875 1.3281-0.64844 0.875-0.96875 2.0859-0.96875 3.625v8.375h-5.4375v-17.016h5.4375v2.5c0.82031-1 1.6914-1.7344 2.6094-2.2031 0.92578-0.46875 1.9453-0.70312 3.0625-0.70312 1.957 0 3.4453 0.60547 4.4688 1.8125 1.0195 1.1992 1.5312 2.9492 1.5312 5.25z"
         id="path213" />
    </symbol>
    <symbol
       id="o"
       overflow="visible">
      <path
         d="m2.8594-22.672h9.7031c2.8828 0 5.0977 0.64062 6.6406 1.9219 1.5508 1.2812 2.3281 3.1055 2.3281 5.4688 0 2.375-0.77734 4.2031-2.3281 5.4844-1.543 1.2812-3.7578 1.9219-6.6406 1.9219h-3.8594v7.875h-5.8438zm5.8438 4.2344v6.3281h3.2344c1.1328 0 2.0078-0.27344 2.625-0.82812 0.625-0.55078 0.9375-1.332 0.9375-2.3438 0-1.0078-0.3125-1.7852-0.9375-2.3281-0.61719-0.55078-1.4922-0.82812-2.625-0.82812z"
         id="path216" />
    </symbol>
    <symbol
       id="n"
       overflow="visible">
      <path
         d="m2.6094-17.016h5.4375v16.719c0 2.2695-0.54688 4.0039-1.6406 5.2031-1.0938 1.207-2.6797 1.8125-4.75 1.8125h-2.6875v-3.5781h0.9375c1.0312 0 1.7383-0.23438 2.125-0.70312 0.38281-0.46094 0.57812-1.3711 0.57812-2.7344zm0-6.625h5.4375v4.4375h-5.4375z"
         id="path219" />
    </symbol>
    <symbol
       id="m"
       overflow="visible">
      <path
         d="m16.359-16.484v4.4375c-0.74219-0.50781-1.4844-0.88281-2.2344-1.125-0.74219-0.23828-1.5117-0.35938-2.3125-0.35938-1.5117 0-2.6953 0.44531-3.5469 1.3281-0.84375 0.88672-1.2656 2.125-1.2656 3.7188 0 1.5859 0.42188 2.8203 1.2656 3.7031 0.85156 0.88672 2.0352 1.3281 3.5469 1.3281 0.85156 0 1.6602-0.125 2.4219-0.375 0.76953-0.25 1.4766-0.625 2.125-1.125v4.4531c-0.85547 0.3125-1.7188 0.54688-2.5938 0.70312s-1.75 0.23438-2.625 0.23438c-3.0742 0-5.4766-0.78516-7.2031-2.3594-1.7305-1.5703-2.5938-3.7578-2.5938-6.5625 0-2.8125 0.86328-5.0039 2.5938-6.5781 1.7266-1.5703 4.1289-2.3594 7.2031-2.3594 0.88281 0 1.7578 0.078125 2.625 0.23438 0.86328 0.15625 1.7266 0.39062 2.5938 0.70312z"
         id="path222" />
    </symbol>
    <clipPath
       clipPathUnits="userSpaceOnUse"
       id="clipPath572">
      <rect
         style="fill:#000000;stroke-width:0.63504"
         id="rect574"
         width="570.3855"
         height="565.5434"
         x="70.434608"
         y="0.99963731" />
    </clipPath>
  </defs>
  <g
     id="g303"
     transform="matrix(0.87616646,0,0,0.85168009,-57.652046,-0.09759646)"
     clip-path="url(#clipPath572)">
    <path
       d="M 350,0 C 275.738,0 204.52,29.5 152.01,82.012 99.498,134.52 69.998,205.742 69.998,280.002 c 0,74.26 29.5,145.48 82.012,197.99 52.508,52.512 123.73,82.012 197.99,82.012 74.26,0 145.48,-29.5 197.99,-82.012 52.512,-52.508 82.012,-123.73 82.012,-197.99 0,-49.148 -12.938,-97.434 -37.512,-140 C 567.912,97.436 532.568,62.092 490,37.512 447.434,12.938 399.148,0 350,0 Z m 0,510.22 c -61.059,0 -119.62,-24.258 -162.79,-67.43 C 144.038,399.614 119.78,341.06 119.78,280 c 0,-61.06 24.258,-119.62 67.43,-162.79 C 230.386,74.038 288.94,49.78 350,49.78 c 61.06,0 119.62,24.258 162.79,67.43 43.172,43.176 67.43,101.73 67.43,162.79 0,40.414 -10.637,80.113 -30.844,115.11 -20.207,35 -49.27,64.062 -84.27,84.27 -34.996,20.207 -74.695,30.844 -115.11,30.844 z"
       id="path227" />
    <path
       d="m 419.07,264.63 c 12.215,0 23.93,-4.8555 32.566,-13.496 8.6367,-8.6367 13.484,-20.355 13.477,-32.57 -0.004,-12.215 -4.8633,-23.93 -13.508,-32.559 -8.6406,-8.6328 -20.359,-13.477 -32.578,-13.465 -12.215,0.0117 -23.926,4.875 -32.551,13.523 -8.6289,8.6445 -13.469,20.367 -13.449,32.582 0,3.9023 0.48047,7.7891 1.4297,11.574 l -27.688,24.266 -23.207,-18.668 h -0.004 c 4.9766,-12.25 4.4336,-26.047 -1.4805,-37.871 -5.918,-11.824 -16.637,-20.531 -29.426,-23.895 -12.785,-3.3633 -26.402,-1.0586 -37.371,6.3203 -10.969,7.3828 -18.23,19.129 -19.926,32.242 -1.6992,13.113 2.3281,26.32 11.055,36.254 8.7269,9.934 21.305,15.629 34.527,15.637 4.8359,-0.008 9.6445,-0.76172 14.25,-2.2422 l 22.398,17.922 -20.41,18.48 c -5.1836,-1.9805 -10.688,-2.9961 -16.238,-2.9883 -12.215,0 -23.93,4.8555 -32.566,13.492 -8.6367,8.6406 -13.484,20.359 -13.477,32.574 0.004,12.215 4.8633,23.926 13.508,32.559 8.6406,8.6328 20.359,13.477 32.578,13.465 12.215,-0.0117 23.926,-4.875 32.551,-13.523 8.6289,-8.6484 13.469,-20.367 13.449,-32.582 -0.004,-5.3516 -0.94922,-10.66 -2.7969,-15.684 l 23.828,-21.09 27.441,22.027 v -0.004 c -4.2461,12.387 -3.0195,25.992 3.375,37.418 6.3906,11.426 17.348,19.59 30.125,22.449 12.773,2.8594 26.164,0.14453 36.816,-7.4648 10.656,-7.6094 17.566,-19.395 19.004,-32.41 1.4375,-13.012 -2.7305,-26.023 -11.465,-35.773 -8.7344,-9.7539 -21.207,-15.328 -34.301,-15.328 -5.8633,-0.008 -11.672,1.1133 -17.109,3.2969 l -24.891,-19.848 21.465,-18.977 h 0.004 c 6.4336,3.0234 13.484,4.5156 20.594,4.3555 z m -5.6641,57.367 h 0.004 c 0.37109,3.0312 -0.50391,6.0859 -2.4297,8.4609 -4.0391,4.8516 -11.195,5.6211 -16.176,1.7422 l -16.18,-12.879 -24.891,-19.848 17.484,-15.492 23.207,18.668 14.684,11.762 0.004,-0.004 c 2.3945,1.8516 3.9414,4.5859 4.2969,7.5898 z m -45.297,-45.484 -2.8633,2.6133 -17.484,15.43 -2.9258,2.6133 -2.9258,2.5508 -21.094,18.668 -15.184,13.504 h 0.008 c -4.8281,4.0039 -11.938,3.5703 -16.242,-0.99609 -2.0352,-2.2812 -3.0742,-5.2773 -2.8867,-8.3281 0.1875,-3.0508 1.5859,-5.8984 3.8828,-7.9141 l 14.25,-12.445 19.039,-16.801 2.9258,-2.6133 2.8594,-2.7969 17.484,-15.492 3.0508,-2.5508 2.9258,-2.6133 24.391,-21.59 17.172,-15.184 c 2.0938,-1.8555 4.7969,-2.875 7.5898,-2.8633 h 0.75 c 4.6367,0.29688 8.6406,3.3516 10.152,7.7461 1.5078,4.3945 0.23047,9.2656 -3.2461,12.352 l -17.859,15.805 -20.719,18.668 z m -92.773,-44.055 c -0.32031,-3.0391 0.57422,-6.0781 2.4883,-8.4609 1.9062,-2.3828 4.6836,-3.9062 7.7188,-4.2305 h 1.2461 -0.004 c 2.6172,0.008 5.1562,0.88281 7.2188,2.4883 l 26.008,20.41 20.906,16.738 -17.484,15.492 -20.285,-16.238 -23.395,-18.668 c -2.3984,-1.8359 -3.9844,-4.5391 -4.418,-7.5312 z"
       id="path229" />
    <use
       x="70"
       y="653.33203"
       xlink:href="#v"
       id="use231" />
    <use
       x="92.832031"
       y="653.33203"
       xlink:href="#c"
       id="use233" />
    <use
       x="108.17578"
       y="653.33203"
       xlink:href="#a"
       id="use235" />
    <use
       x="129.27344"
       y="653.33203"
       xlink:href="#l"
       id="use237" />
    <use
       x="150.26953"
       y="653.33203"
       xlink:href="#b"
       id="use239" />
    <use
       x="165.14062"
       y="653.33203"
       xlink:href="#a"
       id="use241" />
    <use
       x="186.24219"
       y="653.33203"
       xlink:href="#k"
       id="use243" />
    <use
       x="219.34375"
       y="653.33203"
       xlink:href="#j"
       id="use245" />
    <use
       x="241.61328"
       y="653.33203"
       xlink:href="#i"
       id="use247" />
    <use
       x="272.72266"
       y="653.33203"
       xlink:href="#h"
       id="use249" />
    <use
       x="284.30078"
       y="653.33203"
       xlink:href="#a"
       id="use251" />
    <use
       x="305.39844"
       y="653.33203"
       xlink:href="#g"
       id="use253" />
    <use
       x="323.91797"
       y="653.33203"
       xlink:href="#g"
       id="use255" />
    <use
       x="353.26562"
       y="653.33203"
       xlink:href="#u"
       id="use257" />
    <use
       x="375.67188"
       y="653.33203"
       xlink:href="#f"
       id="use259" />
    <use
       x="408.08984"
       y="653.33203"
       xlink:href="#t"
       id="use261" />
    <use
       x="418.75391"
       y="653.33203"
       xlink:href="#b"
       id="use263" />
    <use
       x="433.625"
       y="653.33203"
       xlink:href="#e"
       id="use265" />
    <use
       x="70"
       y="684.44531"
       xlink:href="#s"
       id="use267" />
    <use
       x="83.535156"
       y="684.44531"
       xlink:href="#c"
       id="use269" />
    <use
       x="98.878906"
       y="684.44531"
       xlink:href="#d"
       id="use271" />
    <use
       x="120.25"
       y="684.44531"
       xlink:href="#f"
       id="use273" />
    <use
       x="163.5"
       y="684.44531"
       xlink:href="#b"
       id="use275" />
    <use
       x="178.37109"
       y="684.44531"
       xlink:href="#e"
       id="use277" />
    <use
       x="200.51953"
       y="684.44531"
       xlink:href="#a"
       id="use279" />
    <use
       x="232.45312"
       y="684.44531"
       xlink:href="#r"
       id="use281" />
    <use
       x="258.48828"
       y="684.44531"
       xlink:href="#d"
       id="use283" />
    <use
       x="279.86328"
       y="684.44531"
       xlink:href="#q"
       id="use285" />
    <use
       x="302.01172"
       y="684.44531"
       xlink:href="#p"
       id="use287" />
    <use
       x="334.99219"
       y="684.44531"
       xlink:href="#o"
       id="use289" />
    <use
       x="357.79297"
       y="684.44531"
       xlink:href="#c"
       id="use291" />
    <use
       x="373.13672"
       y="684.44531"
       xlink:href="#d"
       id="use293" />
    <use
       x="394.50781"
       y="684.44531"
       xlink:href="#n"
       id="use295" />
    <use
       x="405.17188"
       y="684.44531"
       xlink:href="#a"
       id="use297" />
    <use
       x="426.27344"
       y="684.44531"
       xlink:href="#m"
       id="use299" />
    <use
       x="444.71484"
       y="684.44531"
       xlink:href="#b"
       id="use301" />
  </g>
</svg>
